<?xml version="1.0" standalone="no"?>
<!DOCTYPE svg PUBLIC "-//W3C//DTD SVG 20010904//EN"
 "http://www.w3.org/TR/2001/REC-SVG-20010904/DTD/svg10.dtd">
<svg version="1.0" xmlns="http://www.w3.org/2000/svg"
 width="1080.000000pt" height="864.000000pt" viewBox="0 0 1080.000000 864.000000"
 preserveAspectRatio="xMidYMid meet">

<g transform="translate(0.000000,864.000000) scale(0.100000,-0.100000)"
fill="#000000" stroke="none">
<path d="M0 4320 l0 -4320 5400 0 5400 0 0 4320 0 4320 -5400 0 -5400 0 0
-4320z m8191 4169 c13 -8 24 -314 20 -611 -1 -96 2 -128 11 -129 7 -1 65 0
128 1 179 3 230 -27 230 -136 0 -63 -58 -371 -77 -409 -40 -79 -97 -115 -197
-124 l-71 -6 1 -80 c0 -44 4 -122 9 -173 8 -88 9 -93 29 -88 49 14 206 18 276
7 184 -29 291 -129 307 -284 5 -55 -26 -263 -76 -511 -16 -78 -39 -197 -51
-266 -34 -190 -74 -294 -147 -381 -46 -54 -137 -115 -216 -144 l-75 -27 -7
-45 c-3 -25 -3 -120 1 -213 4 -116 3 -169 -4 -174 -15 -9 -5661 -150 -5670
-142 -4 4 -10 116 -14 248 -3 131 -8 242 -11 245 -3 2 -43 -5 -88 -16 -61 -15
-114 -21 -202 -21 l-119 0 7 43 c3 23 18 101 32 174 l26 132 63 7 c74 7 108
29 123 77 9 31 54 253 103 517 21 116 23 148 21 444 -1 175 -4 320 -6 322 -2
2 -28 -9 -58 -26 -75 -40 -166 -60 -281 -60 -173 0 -261 35 -315 127 -44 75
-39 153 35 538 69 355 80 399 124 467 76 120 200 184 375 195 l92 6 -6 182 -6
183 84 6 c46 3 1063 30 2259 61 1196 30 2213 57 2260 60 139 8 465 17 610 16
74 0 162 3 195 8 75 11 258 11 276 0z m836 -751 c-3 -13 -9 -44 -12 -69 l-7
-46 -66 -7 c-37 -3 -88 -6 -114 -6 l-46 0 -7 -52 c-4 -29 -6 -55 -4 -58 2 -2
39 -3 82 -1 87 3 83 9 65 -85 l-11 -64 -87 0 -87 0 -10 -55 c-6 -33 -6 -58 -1
-61 5 -4 55 -3 110 1 l101 7 -6 -33 c-4 -19 -9 -52 -13 -75 l-6 -41 -192 -6
c-105 -3 -193 -4 -195 -2 -2 2 24 149 58 327 34 178 61 326 61 330 0 9 73 14
249 16 l143 2 -5 -22z m-6614 -3713 c-46 -65 -47 -65 -96 -65 -27 0 -47 4 -45
8 2 5 14 34 28 65 l25 57 67 0 68 0 -47 -65z m3278 -110 c268 -40 439 -175
485 -384 32 -143 23 -208 -150 -1016 -86 -401 -166 -759 -178 -795 -66 -203
-199 -372 -375 -474 -287 -168 -786 -191 -1056 -48 -212 111 -295 318 -241
603 40 217 317 1488 335 1541 56 166 171 320 309 415 109 74 268 134 425 158
111 18 331 18 446 0z m-3921 -225 l0 -230 -61 0 -61 0 4 48 3 47 -42 3 -41 3
-17 -50 -17 -51 -60 0 c-45 0 -59 3 -55 13 3 7 47 110 98 230 l94 217 78 0 77
0 0 -230z m404 203 c-12 -56 -16 -63 -32 -64 -9 -1 -30 -2 -47 -3 l-30 -1 -38
-179 c-20 -99 -39 -181 -41 -183 -2 -2 -28 -3 -58 -1 l-55 3 38 175 c20 96 35
178 33 182 -3 5 -23 8 -45 8 l-40 0 7 38 c4 20 9 40 11 45 2 4 72 7 154 7
l149 0 -6 -27z m279 -5 c-11 -61 -15 -64 -93 -63 -39 1 -72 -1 -74 -4 -2 -3
-6 -23 -10 -43 l-7 -38 59 0 59 0 -10 -50 -10 -50 -58 0 c-63 0 -63 0 -74 -47
l-7 -33 76 0 c83 0 83 0 65 -62 l-10 -38 -133 0 -134 0 9 38 c17 77 89 414 89
418 0 2 61 4 135 4 l135 0 -7 -32z m4598 8 c173 -37 269 -143 269 -297 0 -26
-43 -251 -96 -501 -107 -507 -122 -553 -214 -646 -57 -58 -148 -112 -230 -137
-30 -9 -107 -19 -170 -22 -312 -15 -475 101 -457 326 8 106 185 928 213 990
70 155 220 263 403 290 89 13 210 12 282 -3z m-2631 -36 c0 -6 -27 -138 -60
-293 -33 -156 -60 -286 -60 -290 0 -4 -206 -7 -458 -7 l-459 0 -22 -102 c-13
-57 -25 -113 -28 -125 l-5 -23 206 0 c297 0 422 -31 531 -131 112 -104 162
-280 135 -479 -16 -115 -125 -619 -151 -700 -69 -209 -221 -390 -404 -482
-166 -84 -340 -122 -560 -122 -354 1 -572 98 -670 298 -68 139 -69 261 -1 571
l32 150 348 3 c328 2 347 1 342 -15 -27 -95 -57 -275 -53 -317 5 -55 19 -70
81 -87 76 -21 164 12 201 75 30 51 129 505 120 552 -3 17 -17 42 -31 55 l-26
24 -459 3 c-429 3 -460 4 -455 20 2 9 70 330 151 712 81 382 148 701 150 708
6 16 1605 18 1605 2z m4300 4 c0 -3 -233 -333 -518 -732 -285 -400 -716 -1005
-958 -1344 -295 -414 -446 -617 -459 -620 -11 -2 -123 -1 -248 2 l-229 5 937
1315 c515 723 948 1330 961 1348 l25 32 245 0 c134 0 244 -3 244 -6z m-155
-1123 c162 -19 272 -88 308 -196 31 -89 23 -154 -73 -601 -50 -230 -98 -441
-106 -467 -13 -38 -13 -51 -3 -63 8 -10 15 -12 23 -4 6 6 118 10 318 10 272 0
309 -2 315 -16 3 -8 -4 -64 -17 -124 l-23 -107 -60 -7 c-33 -3 -113 -6 -177
-6 l-117 0 -21 -98 c-35 -154 -44 -142 102 -142 74 0 127 -4 131 -10 7 -11
-33 -210 -46 -232 -5 -8 -47 -13 -139 -16 -153 -5 -134 14 -174 -172 -40 -187
-22 -170 -179 -170 -74 0 -136 2 -139 5 -7 7 29 193 103 538 32 153 59 282 59
288 0 13 -261 11 -315 -2 -48 -12 -48 -11 -70 -117 -25 -122 -35 -112 115
-112 l130 0 0 -25 c0 -38 -39 -207 -51 -222 -8 -9 -52 -13 -142 -15 l-132 -3
-36 -156 c-20 -85 -39 -161 -43 -167 -8 -13 -272 -17 -279 -4 -3 4 3 56 14
116 10 61 17 112 15 114 -2 2 -15 -18 -27 -44 -58 -115 -180 -196 -327 -214
-224 -29 -381 62 -382 221 0 44 24 173 89 474 37 170 42 189 70 244 67 130
196 200 369 201 65 0 72 2 72 20 0 11 45 228 100 482 107 492 121 539 195 625
75 88 209 154 347 172 89 12 113 12 203 2z"/>
<path d="M7914 8431 c-4 -4 -455 -14 -554 -12 -75 1 -4803 -118 -4804 -121 -1
-2 0 -76 2 -165 l3 -162 51 -11 c117 -25 187 -88 209 -189 14 -67 12 -80 -66
-488 -64 -337 -84 -406 -139 -478 -23 -30 -23 -32 -17 -225 l7 -195 18 82 c11
45 22 87 26 94 5 8 71 13 205 17 l197 5 -6 -44 c-7 -43 -24 -137 -106 -584
-22 -115 -51 -275 -66 -355 -56 -304 -80 -367 -176 -464 l-60 -60 4 -238 c2
-130 7 -240 10 -243 5 -5 1019 20 4487 110 525 14 987 25 1028 25 l73 0 0 78
c0 42 -5 129 -12 193 l-12 116 -91 -5 c-210 -11 -362 52 -420 174 -10 21 -23
77 -28 124 -9 79 -7 98 26 265 19 99 42 223 51 275 22 122 63 328 83 407 35
144 161 285 296 334 26 9 40 21 44 38 7 27 -4 332 -12 340 -3 2 -30 3 -61 2
-53 -2 -55 -2 -49 21 3 13 26 131 51 263 l47 240 -2 245 c0 135 -1 324 -2 420
l-1 175 -115 0 c-63 0 -116 -2 -119 -4z m-59 -356 c84 -22 134 -59 168 -124
32 -65 34 -115 10 -243 l-17 -88 -56 0 c-31 0 -104 -3 -162 -6 l-105 -7 13 69
c28 144 16 178 -62 176 -41 0 -53 -5 -75 -30 -27 -30 -49 -104 -49 -166 0 -59
22 -74 175 -114 78 -21 158 -48 178 -61 51 -31 79 -89 79 -160 -1 -83 -46
-283 -78 -341 -49 -89 -151 -168 -259 -199 -121 -35 -302 -31 -393 9 -130 58
-165 158 -126 358 l17 82 121 0 c66 0 139 3 160 7 l39 6 -7 -44 c-4 -24 -9
-73 -13 -109 -7 -79 6 -96 74 -94 60 1 91 33 109 110 32 135 14 156 -171 203
-151 39 -175 50 -209 94 -45 58 -49 109 -22 256 13 72 35 155 49 185 56 121
170 204 322 236 69 14 227 11 290 -5z m-884 -525 c9 -272 19 -559 23 -637 l6
-143 -171 0 -171 0 7 130 8 130 -111 0 -111 0 -19 -52 c-11 -29 -32 -89 -48
-134 l-28 -81 -164 -7 c-90 -4 -166 -5 -168 -3 -3 3 382 961 492 1224 l26 63
182 3 c99 1 192 3 206 2 l25 0 16 -495z m-724 468 c-2 -7 -15 -70 -27 -139
l-23 -126 -125 -6 c-68 -3 -126 -8 -129 -11 -3 -2 -47 -227 -98 -498 l-92
-493 -162 -3 c-88 -1 -161 0 -161 2 0 3 40 216 89 473 49 257 91 479 93 492
l3 23 -126 -1 -127 -2 14 73 c8 40 19 103 26 141 l11 67 76 1 c42 1 186 5 321
9 429 11 443 11 437 -2z m-1058 -51 c50 -33 91 -110 91 -173 0 -72 -50 -317
-75 -370 -24 -49 -114 -145 -145 -156 -13 -4 -12 -10 3 -44 12 -29 97 -453 97
-488 0 -3 -78 -6 -174 -6 l-173 0 -23 133 c-50 290 -57 320 -80 339 -39 32
-30 60 -101 -313 l-31 -166 -160 -7 c-89 -3 -162 -5 -163 -4 -1 2 53 290 119
640 l121 637 95 4 c52 2 199 3 326 3 l231 -1 42 -28z m-750 1 c0 -13 -10 -75
-22 -138 l-23 -115 -54 -7 c-30 -3 -125 -6 -211 -7 l-155 -1 -19 -97 c-10 -54
-20 -104 -23 -112 -5 -12 20 -13 162 -8 l168 7 -5 -23 c-3 -12 -15 -74 -27
-138 l-22 -116 -51 -7 c-29 -3 -103 -6 -164 -6 -109 0 -113 -1 -117 -22 -13
-61 -36 -181 -36 -189 0 -5 93 -6 208 -2 l209 6 -25 -140 -25 -141 -226 -6
c-124 -3 -293 -8 -375 -12 l-148 -5 5 23 c3 13 58 300 123 638 64 338 117 616
119 618 1 1 141 6 311 11 170 4 335 9 367 9 53 2 57 0 56 -20z m-769 -6 c0 -4
-11 -66 -25 -137 -14 -72 -25 -131 -25 -131 0 -1 -94 -5 -209 -9 -202 -7 -210
-8 -215 -29 -2 -11 -14 -73 -26 -136 -11 -63 -24 -123 -27 -134 -5 -18 1 -18
162 -11 l168 7 -6 -24 c-3 -12 -15 -75 -27 -139 l-22 -116 -81 -7 c-45 -3
-119 -6 -164 -6 -77 0 -83 -1 -88 -22 -3 -13 -20 -104 -38 -203 l-33 -180
-163 -3 -163 -3 5 23 c3 13 22 111 42 218 107 570 195 1023 200 1029 6 5 267
13 623 19 61 1 112 -2 112 -6z m3915 -1299 c114 -61 169 -178 145 -303 -6 -30
-13 -80 -16 -110 -8 -82 -42 -218 -69 -278 -15 -32 -53 -82 -100 -130 -49 -50
-73 -82 -69 -92 11 -28 33 -135 55 -265 12 -71 29 -177 39 -235 10 -58 16
-107 13 -110 -8 -9 -433 -12 -433 -3 0 16 -51 290 -65 353 -8 36 -17 76 -20
89 -6 35 -18 43 -46 32 -40 -15 -51 -50 -111 -361 l-24 -125 -84 -7 c-107 -8
-315 -10 -322 -3 -5 5 4 66 17 123 5 18 2 23 -11 20 -12 -2 -22 -23 -33 -73
l-16 -70 -60 -6 c-86 -10 -343 -10 -348 -1 -2 4 6 59 18 122 12 64 18 119 14
124 -5 6 -9 15 -9 20 0 6 4 4 9 -3 8 -12 11 -10 14 10 3 13 24 125 47 249 23
124 59 313 80 420 49 252 57 312 37 304 -9 -3 -18 -16 -21 -30 -6 -23 -9 -24
-114 -24 -153 -1 -382 -16 -392 -26 -5 -5 -15 -51 -21 -102 -11 -80 -11 -95 2
-103 8 -5 92 -9 187 -9 195 0 183 6 162 -85 -5 -22 -18 -91 -29 -154 -11 -62
-23 -116 -26 -119 -3 -3 -81 -9 -173 -12 -178 -6 -201 -12 -222 -59 -16 -35
-22 -141 -9 -158 9 -10 61 -13 240 -13 l228 0 -6 -57 c-4 -32 -18 -112 -32
-178 l-26 -120 -52 -6 c-29 -4 -235 -10 -459 -14 l-406 -8 7 69 c4 38 8 71 9
74 0 3 -3 7 -8 10 -5 3 -19 -29 -30 -70 -11 -41 -25 -78 -30 -82 -6 -5 -74 -7
-151 -5 l-139 2 -52 150 c-56 166 -90 245 -104 245 -6 0 -9 6 -8 12 2 7 -3 13
-9 12 -7 -1 -22 -2 -32 -2 -25 -2 -32 -24 -76 -246 -20 -99 -37 -181 -38 -182
-1 -1 -91 -5 -199 -9 -167 -6 -199 -5 -203 7 -3 8 6 75 21 149 14 74 28 150
30 169 6 61 13 101 48 260 18 85 38 184 44 220 6 36 27 146 46 245 20 99 50
250 67 335 20 105 35 159 46 168 12 8 59 12 149 12 l132 0 26 -72 c14 -40 44
-125 66 -188 21 -63 44 -116 50 -118 5 -2 8 -8 4 -13 -3 -5 0 -9 5 -9 6 0 11
-6 11 -13 0 -7 11 -14 25 -15 35 -3 55 48 100 258 20 96 38 176 38 176 1 1 92
5 201 9 l199 8 -6 -81 c-4 -47 -2 -84 3 -87 9 -5 30 58 45 131 l6 32 127 6
c70 3 274 9 455 12 l327 6 0 -33 c0 -19 -6 -65 -13 -104 -15 -82 -16 -105 -2
-106 6 0 22 52 37 116 14 64 29 120 33 123 4 4 94 8 201 10 l194 3 0 -38 c0
-21 -5 -56 -10 -78 -7 -32 -6 -43 7 -55 9 -8 13 -10 9 -3 -3 6 -2 14 3 17 5 3
14 34 21 69 6 35 16 70 20 78 7 11 56 15 242 20 128 3 301 5 383 5 133 -1 155
-4 190 -23z m-3660 -72 c3 -6 10 -135 15 -288 19 -568 32 -814 45 -844 3 -10
2 -19 -2 -22 -5 -3 -8 -21 -6 -39 3 -38 4 -341 0 -344 -1 -1 -94 -4 -207 -6
l-205 -3 -2 130 c-4 187 3 175 -96 175 -45 0 -98 -3 -117 -6 l-36 -6 -57 -152
-58 -153 -202 -6 c-111 -4 -205 -3 -210 2 -4 4 18 70 49 147 31 76 62 157 70
179 16 44 95 234 127 305 11 25 32 79 48 120 15 41 62 158 104 260 43 102 83
201 90 220 7 19 40 101 74 182 50 118 67 148 84 151 46 9 486 7 492 -2z"/>
<path d="M6659 7604 c-6 -16 -32 -89 -58 -161 l-48 -133 57 0 57 0 6 158 c2
86 3 159 1 161 -2 2 -8 -9 -15 -25z"/>
<path d="M4765 7708 c-8 -26 -45 -222 -45 -241 0 -19 5 -20 81 -14 48 3 87 11
95 19 16 16 50 208 41 231 -5 14 -21 17 -87 17 -56 0 -82 -4 -85 -12z"/>
<path d="M7160 6311 c-34 -9 -59 -64 -55 -123 1 -27 -2 -48 -7 -48 -4 0 -5
-12 -2 -27 4 -15 7 -33 7 -40 0 -6 3 -12 6 -11 23 2 41 -4 36 -12 -9 -15 12
-12 45 5 17 9 30 13 30 10 0 -3 8 2 19 12 18 18 26 41 37 113 3 19 10 39 15
45 14 14 11 45 -6 51 -8 4 -13 10 -10 14 11 17 -66 25 -115 11z"/>
<path d="M2358 7674 c-15 -8 -32 -22 -37 -32 -8 -16 -131 -643 -131 -671 0
-24 40 -51 78 -51 42 0 98 30 106 57 18 61 125 663 120 677 -14 37 -86 48
-136 20z"/>
<path d="M8315 7578 c-10 -42 -65 -340 -65 -350 0 -16 82 -2 95 15 14 20 69
323 61 342 -3 10 -19 15 -45 15 -34 0 -42 -4 -46 -22z"/>
<path d="M8293 6368 c-23 -11 -23 -14 -23 -207 0 -250 11 -601 19 -601 4 0 21
75 39 168 117 598 117 597 82 632 -22 22 -80 26 -117 8z"/>
<path d="M8168 5950 c-10 -47 -21 -105 -24 -130 -3 -25 -16 -98 -30 -163 -26
-131 -24 -146 26 -172 61 -32 60 -34 59 178 -1 105 -4 233 -8 282 l-6 90 -17
-85z"/>
<path d="M5251 3314 c-68 -35 -69 -38 -231 -792 -136 -632 -150 -706 -140
-742 15 -55 48 -75 125 -74 107 1 163 50 189 161 8 38 76 354 151 703 143 666
147 693 106 734 -29 29 -150 35 -200 10z"/>
<path d="M1637 3721 c-21 -61 -21 -61 3 -61 18 0 20 7 20 55 0 30 -1 55 -3 55
-1 0 -10 -22 -20 -49z"/>
<path d="M6791 3561 c-48 -13 -58 -45 -146 -452 -47 -218 -85 -406 -85 -418 0
-85 151 -76 178 11 28 89 174 799 169 821 -10 38 -59 54 -116 38z"/>
<path d="M8371 2400 c-29 -7 -70 -42 -71 -60 0 -3 -38 -187 -84 -409 -90 -429
-91 -444 -41 -457 64 -16 128 22 145 85 20 77 160 762 160 784 0 45 -50 71
-109 57z"/>
<path d="M7557 1162 c-18 -19 -37 -97 -97 -382 -35 -167 -38 -187 -24 -207 25
-39 97 -23 115 24 6 16 35 146 66 291 45 212 53 265 43 277 -18 21 -83 19
-103 -3z"/>
</g>
</svg>
